<svg width="38" height="38" viewBox="0 0 38 38" fill="none" xmlns="http://www.w3.org/2000/svg">
<g filter="url(#filter0_d_44_100)">
<path d="M23.461 22.2222C23.7849 22.9136 24.7325 23.152 24.7685 24.0698C20.906 24.0698 17.0914 24.0698 13.2289 24.0698C13.2888 23.1639 14.2125 22.9136 14.5604 22.2342C14.2485 22.1626 13.9606 22.115 13.6847 22.0315C12.3172 21.6143 11.3456 20.3509 11.3456 18.9086C11.3216 15.8334 11.3216 12.782 11.3336 9.71865C11.3336 8.30023 11.9933 7.22747 13.3248 6.76261C14.4044 6.3931 15.556 6.16663 16.6955 6.05935C18.9267 5.85672 21.1699 5.85672 23.377 6.32158C23.9408 6.44078 24.4926 6.64341 24.9964 6.89372C26.076 7.4301 26.6398 8.3479 26.6518 9.52794C26.6758 12.6866 26.6878 15.8453 26.6518 19.004C26.6398 20.4582 25.5602 21.6978 24.1447 22.0554C23.9288 22.1269 23.7009 22.1626 23.461 22.2222ZM18.0151 9.82593C16.4077 9.82593 14.8362 9.82593 13.2888 9.82593C13.2888 11.4231 13.2888 12.9727 13.2888 14.5222C14.8842 14.5222 16.4316 14.5222 18.0151 14.5222C18.0151 12.9488 18.0151 11.4112 18.0151 9.82593ZM24.7325 9.82593C23.1251 9.82593 21.5537 9.82593 20.0063 9.82593C20.0063 11.4231 20.0063 12.9727 20.0063 14.5222C21.6017 14.5222 23.1491 14.5222 24.7325 14.5222C24.7325 12.9488 24.7325 11.4112 24.7325 9.82593ZM16.1198 18.8609C16.1318 18.0742 15.472 17.4187 14.6803 17.4187C13.9126 17.4187 13.2648 18.0385 13.2408 18.8013C13.2169 19.588 13.8526 20.2555 14.6443 20.2794C15.448 20.2913 16.1078 19.6476 16.1198 18.8609ZM24.7565 18.8371C24.7565 18.0504 24.0848 17.4068 23.2931 17.4187C22.5254 17.4306 21.8896 18.0623 21.8776 18.8252C21.8656 19.6119 22.5134 20.2674 23.3051 20.2794C24.1088 20.2794 24.7565 19.6238 24.7565 18.8371Z" fill="#FFA800"/>
<circle cx="19" cy="15" r="14" stroke="#FFA800" stroke-width="2"/>
</g>
<defs>
<filter id="filter0_d_44_100" x="0" y="0" width="38" height="38" filterUnits="userSpaceOnUse" color-interpolation-filters="sRGB">
<feFlood flood-opacity="0" result="BackgroundImageFix"/>
<feColorMatrix in="SourceAlpha" type="matrix" values="0 0 0 0 0 0 0 0 0 0 0 0 0 0 0 0 0 0 127 0" result="hardAlpha"/>
<feOffset dy="4"/>
<feGaussianBlur stdDeviation="2"/>
<feComposite in2="hardAlpha" operator="out"/>
<feColorMatrix type="matrix" values="0 0 0 0 0 0 0 0 0 0 0 0 0 0 0 0 0 0 0.25 0"/>
<feBlend mode="normal" in2="BackgroundImageFix" result="effect1_dropShadow_44_100"/>
<feBlend mode="normal" in="SourceGraphic" in2="effect1_dropShadow_44_100" result="shape"/>
</filter>
</defs>
</svg>
